# xmcd CD database file
#
# Track frame offsets:
#	182
#	29812
#	78905
#	125070
#	157170
#	192505
#	204965
#
# Disc length: 3225 seconds
#
# Revision: 0
# Processed by: cddbd v1.5.1PL2 Copyright (c) Steve Scherf et al.
# Submitted via: CDex 1.50
#
DISCID=620c9707
DTITLE=pierre louis garcia - passage du musée
DYEAR=1900
DGENRE=Jazz
TTITLE0=passage au musée
TTITLE1=il trono di attila
TTITLE2=phrygien
TTITLE3=berkshire blues
TTITLE4=free dance company
TTITLE5=marco et kurt
TTITLE6=tube gay
EXTD=
EXTT0=
EXTT1=
EXTT2=
EXTT3=
EXTT4=
EXTT5=
EXTT6=
PLAYORDER=
